<svg xmlns="http://www.w3.org/2000/svg" width="122" height="78" viewBox="0 0 122 78">
  <g id="Group_10" data-name="Group 10" transform="translate(-312 -280)">
    <g id="Ellipse_2" data-name="Ellipse 2" transform="translate(312 280)" fill="#fff" stroke="#707070" stroke-width="1">
      <circle cx="39" cy="39" r="39" stroke="none"/>
      <circle cx="39" cy="39" r="38.5" fill="none"/>
    </g>
    <g id="Ellipse_3" data-name="Ellipse 3" transform="translate(334 280)" stroke="#5e5e5e" stroke-width="4">
      <circle cx="39" cy="39" r="39" stroke="none"/>
      <circle cx="39" cy="39" r="37" fill="none"/>
    </g>
    <g id="Path_1" data-name="Path 1" transform="translate(356 280)" fill="#317689">
      <path d="M 39 77.5 C 33.80231094360352 77.5 28.7603702545166 76.48213958740234 24.01421928405762 74.47467803955078 C 19.42972946166992 72.53560638427734 15.31233024597168 69.75953674316406 11.77639007568359 66.22360992431641 C 8.240460395812988 62.68767166137695 5.464389801025391 58.57027053833008 3.525320053100586 53.98577880859375 C 1.517860054969788 49.23963165283203 0.5 44.19768905639648 0.5 39 C 0.5 33.80231094360352 1.517860054969788 28.7603702545166 3.525320053100586 24.01421928405762 C 5.464389801025391 19.42972946166992 8.240460395812988 15.31233024597168 11.77639007568359 11.77639007568359 C 15.31233024597168 8.240460395812988 19.42972946166992 5.464389801025391 24.01421928405762 3.525320053100586 C 28.7603702545166 1.517860054969788 33.80231094360352 0.5 39 0.5 C 44.19768905639648 0.5 49.23963165283203 1.517860054969788 53.98577880859375 3.525320053100586 C 58.57027053833008 5.464389801025391 62.68767166137695 8.240460395812988 66.22360992431641 11.77639007568359 C 69.75953674316406 15.31233024597168 72.53560638427734 19.42972946166992 74.47467803955078 24.01421928405762 C 76.48213958740234 28.7603702545166 77.5 33.80231094360352 77.5 39 C 77.5 44.19768905639648 76.48213958740234 49.23963165283203 74.47467803955078 53.98577880859375 C 72.53560638427734 58.57027053833008 69.75953674316406 62.68767166137695 66.22360992431641 66.22360992431641 C 62.68767166137695 69.75953674316406 58.57027053833008 72.53560638427734 53.98577880859375 74.47467803955078 C 49.23963165283203 76.48213958740234 44.19768905639648 77.5 39 77.5 Z" stroke="none"/>
      <path d="M 39 1 C 33.86959075927734 1 28.8931770324707 2.00457763671875 24.20898818969727 3.985824584960938 C 19.68410110473633 5.899688720703125 15.62012100219727 8.639762878417969 12.12994384765625 12.12994384765625 C 8.639762878417969 15.62012100219727 5.899688720703125 19.68410110473633 3.985824584960938 24.20898818969727 C 2.00457763671875 28.8931770324707 1 33.86959075927734 1 39 C 1 44.13040924072266 2.00457763671875 49.1068229675293 3.985824584960938 53.79101181030273 C 5.899688720703125 58.31590270996094 8.639762878417969 62.37987899780273 12.12994384765625 65.87005615234375 C 15.62012100219727 69.3602294921875 19.68410110473633 72.10031127929688 24.20898818969727 74.01417541503906 C 28.8931770324707 75.99542236328125 33.86959075927734 77 39 77 C 44.13040924072266 77 49.1068229675293 75.99542236328125 53.79101181030273 74.01417541503906 C 58.31590270996094 72.10031127929688 62.37987899780273 69.3602294921875 65.87005615234375 65.87005615234375 C 69.3602294921875 62.37987899780273 72.10031127929688 58.31590270996094 74.01417541503906 53.79101181030273 C 75.99542236328125 49.1068229675293 77 44.13040924072266 77 39 C 77 33.86959075927734 75.99542236328125 28.8931770324707 74.01417541503906 24.20898818969727 C 72.10031127929688 19.68410110473633 69.3602294921875 15.62012100219727 65.87005615234375 12.12994384765625 C 62.37987899780273 8.639762878417969 58.31590270996094 5.899688720703125 53.79101181030273 3.985824584960938 C 49.1068229675293 2.00457763671875 44.13040924072266 1 39 1 M 39 0 C 60.53910064697266 0 78 17.46089935302734 78 39 C 78 60.53910064697266 60.53910064697266 78 39 78 C 17.46089935302734 78 0 60.53910064697266 0 39 C 0 17.46089935302734 17.46089935302734 0 39 0 Z" stroke="none" fill="#707070"/>
    </g>
  </g>
</svg>
